<svg width="220" height="64" viewBox="0 0 220 64" fill="none" xmlns="http://www.w3.org/2000/svg">
<path d="M20.4 22.8V42C20.4 44.144 19.712 45.808 18.336 46.992C16.992 48.144 14.96 48.72 12.24 48.72C9.552 48.72 7.52 48.144 6.144 46.992C4.768 45.808 4.08 44.144 4.08 42V22.8C4.08 20.656 4.752 19.008 6.096 17.856C7.472 16.672 9.504 16.08 12.192 16.08C14.912 16.08 16.96 16.672 18.336 17.856C19.712 19.008 20.4 20.656 20.4 22.8ZM17.04 42V22.8C17.04 20.24 15.44 18.96 12.24 18.96C9.04 18.96 7.44 20.24 7.44 22.8V42C7.44 44.56 9.04 45.84 12.24 45.84C15.44 45.84 17.04 44.56 17.04 42ZM44.8688 22.8V42C44.8688 44.144 44.1808 45.808 42.8048 46.992C41.4608 48.144 39.4288 48.72 36.7088 48.72C34.0208 48.72 31.9888 48.144 30.6128 46.992C29.2368 45.808 28.5488 44.144 28.5488 42V22.8C28.5488 20.656 29.2208 19.008 30.5648 17.856C31.9408 16.672 33.9728 16.08 36.6608 16.08C39.3808 16.08 41.4288 16.672 42.8048 17.856C44.1808 19.008 44.8688 20.656 44.8688 22.8ZM41.5088 42V22.8C41.5088 20.24 39.9088 18.96 36.7088 18.96C33.5088 18.96 31.9088 20.24 31.9088 22.8V42C31.9088 44.56 33.5088 45.84 36.7088 45.84C39.9088 45.84 41.5088 44.56 41.5088 42ZM102.525 22.8V42C102.525 44.144 101.837 45.808 100.461 46.992C99.117 48.144 97.085 48.72 94.365 48.72C91.677 48.72 89.645 48.144 88.269 46.992C86.893 45.808 86.205 44.144 86.205 42V22.8C86.205 20.656 86.877 19.008 88.221 17.856C89.597 16.672 91.629 16.08 94.317 16.08C97.037 16.08 99.085 16.672 100.461 17.856C101.837 19.008 102.525 20.656 102.525 22.8ZM99.165 42V22.8C99.165 20.24 97.565 18.96 94.365 18.96C91.165 18.96 89.565 20.24 89.565 22.8V42C89.565 44.56 91.165 45.84 94.365 45.84C97.565 45.84 99.165 44.56 99.165 42ZM126.994 22.8V42C126.994 44.144 126.306 45.808 124.93 46.992C123.586 48.144 121.554 48.72 118.834 48.72C116.146 48.72 114.114 48.144 112.738 46.992C111.362 45.808 110.674 44.144 110.674 42V22.8C110.674 20.656 111.346 19.008 112.69 17.856C114.066 16.672 116.098 16.08 118.786 16.08C121.506 16.08 123.554 16.672 124.93 17.856C126.306 19.008 126.994 20.656 126.994 22.8ZM123.634 42V22.8C123.634 20.24 122.034 18.96 118.834 18.96C115.634 18.96 114.034 20.24 114.034 22.8V42C114.034 44.56 115.634 45.84 118.834 45.84C122.034 45.84 123.634 44.56 123.634 42ZM184.65 22.8V42C184.65 44.144 183.962 45.808 182.586 46.992C181.242 48.144 179.21 48.72 176.49 48.72C173.802 48.72 171.77 48.144 170.394 46.992C169.018 45.808 168.33 44.144 168.33 42V22.8C168.33 20.656 169.002 19.008 170.346 17.856C171.722 16.672 173.754 16.08 176.442 16.08C179.162 16.08 181.21 16.672 182.586 17.856C183.962 19.008 184.65 20.656 184.65 22.8ZM181.29 42V22.8C181.29 20.24 179.69 18.96 176.49 18.96C173.29 18.96 171.69 20.24 171.69 22.8V42C171.69 44.56 173.29 45.84 176.49 45.84C179.69 45.84 181.29 44.56 181.29 42ZM209.119 22.8V42C209.119 44.144 208.431 45.808 207.055 46.992C205.711 48.144 203.679 48.72 200.959 48.72C198.271 48.72 196.239 48.144 194.863 46.992C193.487 45.808 192.799 44.144 192.799 42V22.8C192.799 20.656 193.471 19.008 194.815 17.856C196.191 16.672 198.223 16.08 200.911 16.08C203.631 16.08 205.679 16.672 207.055 17.856C208.431 19.008 209.119 20.656 209.119 22.8ZM205.759 42V22.8C205.759 20.24 204.159 18.96 200.959 18.96C197.759 18.96 196.159 20.24 196.159 22.8V42C196.159 44.56 197.759 45.84 200.959 45.84C204.159 45.84 205.759 44.56 205.759 42Z" fill="white"/>
<path d="M50.358 46V36.214H52.01V40.456H56.868V36.214H58.52V46H56.868V41.996H52.01V46H50.358Z" fill="white"/>
<path d="M133.01 46H131.358V36.214H133.934L136.888 42.36L139.842 36.214H142.404V46H140.752V38.356L137.336 45.146H136.412L133.01 38.356V46Z" fill="white"/>
<path d="M215.312 37.502C214.836 37.502 214.444 37.6 214.136 37.796C213.828 37.992 213.674 38.2907 213.674 38.692C213.674 39.084 213.828 39.3873 214.136 39.602C214.444 39.8073 215.097 40.0313 216.096 40.274C217.104 40.5167 217.86 40.8573 218.364 41.296C218.877 41.7347 219.134 42.3833 219.134 43.242C219.134 44.0913 218.812 44.782 218.168 45.314C217.524 45.846 216.679 46.112 215.634 46.112C214.103 46.112 212.745 45.5847 211.56 44.53L212.596 43.284C213.585 44.1427 214.612 44.572 215.676 44.572C216.208 44.572 216.628 44.46 216.936 44.236C217.253 44.0027 217.412 43.6993 217.412 43.326C217.412 42.9433 217.263 42.6493 216.964 42.444C216.675 42.2293 216.171 42.038 215.452 41.87C214.733 41.6927 214.187 41.534 213.814 41.394C213.441 41.2447 213.109 41.0533 212.82 40.82C212.241 40.3813 211.952 39.7093 211.952 38.804C211.952 37.8987 212.279 37.2033 212.932 36.718C213.595 36.2233 214.411 35.976 215.382 35.976C216.007 35.976 216.628 36.0787 217.244 36.284C217.86 36.4893 218.392 36.7787 218.84 37.152L217.958 38.398C217.669 38.1367 217.277 37.922 216.782 37.754C216.287 37.586 215.797 37.502 215.312 37.502Z" fill="white"/>
</svg>
